<svg xmlns="http://www.w3.org/2000/svg" width="300" height="180" viewBox="0 0 300 180">
    <path fill="#0B8E91" d="M103,14 L195,14 C196.104569,14 197,14.8954305 197,16 L197,138.000073 C197,139.104642 196.104569,140.000073 195,140.000073 L103,140.000073 C101.895431,140.000073 101,139.104642 101,138.000073 L101,16 C101,14.8954305 101.895431,14 103,14 Z"/>
    <path fill="#0FC0C5" d="M84.9999826,32 L155,32 L155,32 L179,56 L179,156.000125 C179,157.104694 178.104569,158.000125 177,158.000125 L84.9999826,158.000125 C83.8954131,158.000125 82.9999826,157.104694 82.9999826,156.000125 L82.9999826,34 C82.9999826,32.8954305 83.8954131,32 84.9999826,32 Z"/>
    <path fill="#FFF" d="M155,32 L179,56 L156,56 C155.447715,56 155,55.5522847 155,55 L155,32 L155,32 Z" opacity=".3"/>
    <rect width="60" height="2" x="101" y="84" fill="#FFF"/>
    <rect width="28" height="4" x="101" y="70" fill="#FFF"/>
    <rect width="60" height="2" x="101" y="96" fill="#FFF"/>
    <rect width="26" height="2" x="135" y="108" fill="#FFF"/>
    <rect width="26" height="2" x="135" y="120" fill="#FFF"/>
    <rect width="26" height="2" x="135" y="132" fill="#FFF"/>
    <path fill="#0B8E91" d="M74,107 L128,107 C128.552285,107 129,107.447715 129,108 L129,134 C129,134.552285 128.552285,135 128,135 L74,135 C73.4477153,135 73,134.552285 73,134 L73,108 C73,107.447715 73.4477153,107 74,107 Z"/>
    <path fill="#FFF" fill-rule="nonzero" d="M82,128 L82,112 L86.886392,112 C90.3258427,112 92.8876404,113.223242 92.8876404,116.941896 C92.8876404,120.489297 90.3258427,122.12844 86.9812734,122.12844 L84.7515605,122.12844 L84.7515605,128 L82,128 Z M84.7515605,119.853211 L86.7677903,119.853211 C89.0686642,119.853211 90.1835206,118.899083 90.1835206,116.941896 C90.1835206,114.93578 88.9737828,114.275229 86.6729089,114.275229 L84.7515605,114.275229 L84.7515605,119.853211 Z M95.8052434,128 L95.8052434,112 L99.9563046,112 C104.700375,112 107.499376,114.642202 107.499376,119.926606 C107.499376,125.235474 104.700375,128 100.098627,128 L95.8052434,128 Z M98.556804,125.700306 L99.7665418,125.700306 C102.897628,125.700306 104.676654,123.865443 104.676654,119.926606 C104.676654,116.012232 102.897628,114.299694 99.7665418,114.299694 L98.556804,114.299694 L98.556804,125.700306 Z M110.630462,128 L110.630462,112 L120,112 L120,114.397554 L113.382022,114.397554 L113.382022,118.923547 L119.027466,118.923547 L119.027466,121.321101 L113.382022,121.321101 L113.382022,128 L110.630462,128 Z"/>
    <path fill="#0FC0C5" fill-rule="nonzero" d="M225 145C225.552285 145 226 144.552285 226 144 226 143.447715 225.552285 143 225 143 224.447715 143 224 143.447715 224 144 224 144.552285 224.447715 145 225 145zM225 146C223.895431 146 223 145.104569 223 144 223 142.895431 223.895431 142 225 142 226.104569 142 227 142.895431 227 144 227 145.104569 226.104569 146 225 146zM227 64C227.552285 64 228 63.5522847 228 63 228 62.4477153 227.552285 62 227 62 226.447715 62 226 62.4477153 226 63 226 63.5522847 226.447715 64 227 64zM227 65C225.895431 65 225 64.1045695 225 63 225 61.8954305 225.895431 61 227 61 228.104569 61 229 61.8954305 229 63 229 64.1045695 228.104569 65 227 65zM50 124C50.5522847 124 51 123.552285 51 123 51 122.447715 50.5522847 122 50 122 49.4477153 122 49 122.447715 49 123 49 123.552285 49.4477153 124 50 124zM50 125C48.8954305 125 48 124.104569 48 123 48 121.895431 48.8954305 121 50 121 51.1045695 121 52 121.895431 52 123 52 124.104569 51.1045695 125 50 125z"/>
    <polygon fill="#0FC0C5" points="237 130 237 128 238 128 238 130 240 130 240 131 238 131 238 133 237 133 237 131 235 131 235 130"/>
    <path fill="#0FC0C5" fill-rule="nonzero" d="M50 35C50.5522847 35 51 34.5522847 51 34 51 33.4477153 50.5522847 33 50 33 49.4477153 33 49 33.4477153 49 34 49 34.5522847 49.4477153 35 50 35zM50 36C48.8954305 36 48 35.1045695 48 34 48 32.8954305 48.8954305 32 50 32 51.1045695 32 52 32.8954305 52 34 52 35.1045695 51.1045695 36 50 36zM67.8062676 17.1937324C68.0645775 17.4520422 68.0645775 17.8708451 67.8062676 18.1291549L66.4031338 19.5322887C66.144824 19.7905985 65.7260211 19.7905985 65.4677113 19.5322887 65.2094015 19.2739789 65.2094015 18.855176 65.4677113 18.5968662L66.8708451 17.1937324C67.1291549 16.9354225 67.5479578 16.9354225 67.8062676 17.1937324L67.8062676 17.1937324zM64.5322887 20.4677113C64.7905985 20.7260211 64.7905985 21.144824 64.5322887 21.4031338L63.1291549 22.8062676C62.8708451 23.0645775 62.4520422 23.0645775 62.1937324 22.8062676 61.9354225 22.5479578 61.9354225 22.1291549 62.1937324 21.8708451L63.5968662 20.4677113C63.855176 20.2094015 64.2739789 20.2094015 64.5322887 20.4677113zM67.8062676 22.8062676C67.5479578 23.0645775 67.1291549 23.0645775 66.8708451 22.8062676L65.4677113 21.4031338C65.2094015 21.144824 65.2094015 20.7260211 65.4677113 20.4677113 65.7260211 20.2094015 66.144824 20.2094015 66.4031338 20.4677113L67.8062676 21.8708451C68.0645775 22.1291549 68.0645775 22.5479578 67.8062676 22.8062676zM64.5322887 19.5322887C64.2739789 19.7905985 63.855176 19.7905985 63.5968662 19.5322887L62.1937324 18.1291549C61.9354225 17.8708451 61.9354225 17.4520422 62.1937324 17.1937324 62.4520422 16.9354225 62.8708451 16.9354225 63.1291549 17.1937324L64.5322887 18.5968662C64.7905985 18.855176 64.7905985 19.2739789 64.5322887 19.5322887zM219.806268 39.1937324C220.064577 39.4520422 220.064577 39.8708451 219.806268 40.1291549L218.403134 41.5322887C218.144824 41.7905985 217.726021 41.7905985 217.467711 41.5322887 217.209401 41.2739789 217.209401 40.855176 217.467711 40.5968662L218.870845 39.1937324C219.129155 38.9354225 219.547958 38.9354225 219.806268 39.1937324L219.806268 39.1937324zM216.532289 42.4677113C216.790599 42.7260211 216.790599 43.144824 216.532289 43.4031338L215.129155 44.8062676C214.870845 45.0645775 214.452042 45.0645775 214.193732 44.8062676 213.935423 44.5479578 213.935423 44.1291549 214.193732 43.8708451L215.596866 42.4677113C215.855176 42.2094015 216.273979 42.2094015 216.532289 42.4677113zM219.806268 44.8062676C219.547958 45.0645775 219.129155 45.0645775 218.870845 44.8062676L217.467711 43.4031338C217.209401 43.144824 217.209401 42.7260211 217.467711 42.4677113 217.726021 42.2094015 218.144824 42.2094015 218.403134 42.4677113L219.806268 43.8708451C220.064577 44.1291549 220.064577 44.5479578 219.806268 44.8062676zM216.532289 41.5322887C216.273979 41.7905985 215.855176 41.7905985 215.596866 41.5322887L214.193732 40.1291549C213.935423 39.8708451 213.935423 39.4520422 214.193732 39.1937324 214.452042 38.9354225 214.870845 38.9354225 215.129155 39.1937324L216.532289 40.5968662C216.790599 40.855176 216.790599 41.2739789 216.532289 41.5322887zM43.8062676 101.193732C44.0645775 101.452042 44.0645775 101.870845 43.8062676 102.129155L42.4031338 103.532289C42.144824 103.790599 41.7260211 103.790599 41.4677113 103.532289 41.2094015 103.273979 41.2094015 102.855176 41.4677113 102.596866L42.8708451 101.193732C43.1291549 100.935423 43.5479578 100.935423 43.8062676 101.193732L43.8062676 101.193732zM40.5322887 104.467711C40.7905985 104.726021 40.7905985 105.144824 40.5322887 105.403134L39.1291549 106.806268C38.8708451 107.064577 38.4520422 107.064577 38.1937324 106.806268 37.9354225 106.547958 37.9354225 106.129155 38.1937324 105.870845L39.5968662 104.467711C39.855176 104.209401 40.2739789 104.209401 40.5322887 104.467711zM43.8062676 106.806268C43.5479578 107.064577 43.1291549 107.064577 42.8708451 106.806268L41.4677113 105.403134C41.2094015 105.144824 41.2094015 104.726021 41.4677113 104.467711 41.7260211 104.209401 42.144824 104.209401 42.4031338 104.467711L43.8062676 105.870845C44.0645775 106.129155 44.0645775 106.547958 43.8062676 106.806268zM40.5322887 103.532289C40.2739789 103.790599 39.855176 103.790599 39.5968662 103.532289L38.1937324 102.129155C37.9354225 101.870845 37.9354225 101.452042 38.1937324 101.193732 38.4520422 100.935423 38.8708451 100.935423 39.1291549 101.193732L40.5322887 102.596866C40.7905985 102.855176 40.7905985 103.273979 40.5322887 103.532289z"/>
    <path fill="#0B8E91" d="M244 106L231 106 231 101 232 101 232 105 243 105 243 101 244 101 244 106zM238 90L238 101.19 240.3 99 241 99.6666667 237.5 103 234 99.6666667 234.7 99 237 101.19 237 90 238 90zM52 63L52 67 54 67 54 76 52 76 52 79 40 79 40 76 38 76 38 67 40 67 40 63 52 63zM51 74L41 74 41 78 51 78 51 74zM53 68L39 68 39 75 40 75 40 73 52 73 52 75 53 75 53 68zM51 69C51.5522847 69 52 69.4477153 52 70 52 70.5522847 51.5522847 71 51 71 50.4477153 71 50 70.5522847 50 70 50 69.4477153 50.4477153 69 51 69zM51 64L41 64 41 67 51 67 51 64z"/>
    <path fill="#0B8E91" fill-rule="nonzero" d="M254.757333,38.2161396 L239.266856,28.9807837 L242.994577,46.1355122 L246.705,43.637 L250.380407,48.6838877 L254.709582,45.7692351 L251.034,40.722 L254.757333,38.2161396 Z M240.733,31.019 L252.89,38.267 L249.615282,40.4725483 L253.29,45.519 L250.621,47.315 L246.946272,42.2694812 L243.659,44.482 L240.733,31.019 Z"/>
</svg>
