<svg width="600" height="519" fill="none" xmlns="http://www.w3.org/2000/svg"><rect width="244.21" height="243.1" rx="36.19" transform="rotate(74.64 55.24 268.36) skewX(.04)" fill="#FAFAFA"/><rect width="291.88" height="291.88" rx="43.42" transform="rotate(-73.79 321.93 69.1) skewX(.06)" fill="#E5EEFF"/><g filter="url(#a)"><path d="M298.68 136a4.08 4.08 0 0 1 4.84-3.12l135.76 29.17c2.2.47 3.6 2.63 3.12 4.83l-37.81 173.8a4.08 4.08 0 0 1-4.85 3.11l-135.76-29.16a4.06 4.06 0 0 1-3.11-4.83l37.8-173.8Z" fill="#fff"/><path d="M299.67 136.22a3.06 3.06 0 0 1 3.63-2.34l135.77 29.16a3.04 3.04 0 0 1 2.33 3.63l-37.8 173.79a3.06 3.06 0 0 1-3.64 2.34L264.2 313.64a3.04 3.04 0 0 1-2.34-3.63l37.81-173.79Z" stroke="#DDD" stroke-width="2.04"/></g><path d="M305.02 165.1c.14-.63.75-1.02 1.38-.89l89.52 19.23a1.16 1.16 0 0 1-.49 2.25l-89.53-19.23a1.15 1.15 0 0 1-.88-1.37ZM322.14 264.66c.15-.66.8-1.07 1.45-.93l61.62 13.23c.66.15 1.07.79.93 1.44a1.22 1.22 0 0 1-1.44.94l-61.63-13.24a1.2 1.2 0 0 1-.93-1.44ZM303.72 171.1c.13-.62.75-1.02 1.37-.89l99.52 21.38a1.16 1.16 0 0 1-.49 2.25l-99.52-21.38a1.15 1.15 0 0 1-.88-1.36ZM320.85 270.59a.97.97 0 0 1 1.16-.75l72.53 15.58a.97.97 0 0 1-.41 1.9l-72.53-15.58a.97.97 0 0 1-.75-1.15ZM302.3 177.6c.14-.62.75-1.02 1.37-.88l72.02 15.47a1.16 1.16 0 0 1-.49 2.25l-72.02-15.47a1.15 1.15 0 0 1-.88-1.37ZM319.44 277.1c.13-.62.74-1.01 1.37-.88l72.01 15.47a1.15 1.15 0 0 1-.49 2.25l-72.01-15.47a1.15 1.15 0 0 1-.88-1.37ZM298.17 196.61c.13-.62.75-1.01 1.37-.88l117.03 25.14a1.16 1.16 0 0 1-.49 2.25l-117.03-25.14a1.15 1.15 0 0 1-.88-1.37ZM278.25 288.16c.14-.62.75-1.02 1.37-.89l117.03 25.14a1.16 1.16 0 0 1-.49 2.25l-117.03-25.13a1.15 1.15 0 0 1-.88-1.37ZM297.02 201.87c.14-.63.75-1.02 1.38-.89l112.02 24.07c.62.13 1.02.74.88 1.36a1.16 1.16 0 0 1-1.37.89L297.9 203.23a1.15 1.15 0 0 1-.88-1.36ZM277.1 293.41c.14-.62.76-1.02 1.38-.88l112.03 24.06a1.16 1.16 0 0 1-.49 2.25l-112.03-24.06a1.15 1.15 0 0 1-.88-1.37ZM295.88 207.12c.14-.62.75-1.02 1.37-.88l114.53 24.6a1.16 1.16 0 0 1-.49 2.25l-114.53-24.6a1.15 1.15 0 0 1-.88-1.37ZM275.96 298.67c.14-.63.75-1.02 1.38-.89l114.52 24.6c.63.14 1.02.75.88 1.37a1.16 1.16 0 0 1-1.37.88l-114.52-24.6a1.15 1.15 0 0 1-.89-1.36ZM294.74 212.37c.13-.62.75-1.01 1.37-.88l114.53 24.6a1.16 1.16 0 0 1-.49 2.25l-114.53-24.6a1.15 1.15 0 0 1-.88-1.37ZM293.6 217.63c.13-.63.75-1.02 1.37-.89l107.02 23c.62.13 1.02.74.88 1.36a1.16 1.16 0 0 1-1.37.88L294.48 219a1.15 1.15 0 0 1-.88-1.36ZM292.45 222.88c.14-.62.75-1.02 1.37-.88l107.03 22.99c.62.13 1.01.74.88 1.36a1.15 1.15 0 0 1-1.37.89l-107.03-23a1.15 1.15 0 0 1-.88-1.36ZM291.31 228.13c.13-.62.75-1.01 1.37-.88l107.03 22.99a1.16 1.16 0 0 1-.49 2.25L292.19 229.5a1.15 1.15 0 0 1-.88-1.37ZM290.17 233.39c.13-.63.75-1.02 1.37-.89l107.02 23c.63.13 1.02.74.88 1.36a1.15 1.15 0 0 1-1.37.88l-107.02-22.99a1.15 1.15 0 0 1-.88-1.36ZM324.44 254.1c.13-.62.75-1.01 1.37-.88l49.51 10.63a1.15 1.15 0 0 1-.49 2.25l-49.51-10.63a1.15 1.15 0 0 1-.88-1.37ZM318.33 282.2c.14-.65.79-1.07 1.44-.93l56.89 12.22a1.22 1.22 0 0 1-.52 2.37l-56.89-12.22a1.2 1.2 0 0 1-.92-1.44ZM323.3 259.36c.13-.63.75-1.02 1.37-.89l49.51 10.64c.62.13 1.01.74.88 1.36a1.16 1.16 0 0 1-1.37.89l-49.51-10.64a1.15 1.15 0 0 1-.88-1.37Z" fill="#E8E8E8"/><rect width="123" height="5" rx="2.5" transform="rotate(12.12 -556.43 1524.26) skewX(-.15)" fill="#05F"/><g filter="url(#b)"><path d="M152.74 215.05c-.44-2.2.99-4.35 3.2-4.8l136.11-27.44c2.2-.45 4.35.98 4.78 3.18l34.7 174.44c.44 2.2-.99 4.36-3.2 4.8l-136.11 27.45a4.06 4.06 0 0 1-4.79-3.19l-34.7-174.44Z" fill="#fff"/><path d="M153.73 214.85a3.06 3.06 0 0 1 2.4-3.6l136.12-27.45a3.04 3.04 0 0 1 3.59 2.4l34.7 174.44a3.06 3.06 0 0 1-2.4 3.6l-136.12 27.44a3.04 3.04 0 0 1-3.59-2.4l-34.7-174.43Z" stroke="#DDD" stroke-width="2.04"/></g><path d="M170.17 239.19c-.13-.63.28-1.23.9-1.36l89.76-18.1c.62-.13 1.23.28 1.35.9.12.63-.28 1.23-.9 1.36l-89.76 18.1a1.15 1.15 0 0 1-1.35-.9ZM225.6 323.64c-.13-.65.3-1.3.95-1.43l61.8-12.45c.65-.14 1.29.29 1.42.94.13.66-.3 1.3-.95 1.44l-61.8 12.45a1.2 1.2 0 0 1-1.42-.95ZM171.37 245.21c-.13-.62.28-1.23.9-1.36l99.78-20.12c.63-.12 1.23.28 1.36.9.12.63-.28 1.24-.9 1.36l-99.8 20.13a1.15 1.15 0 0 1-1.34-.9ZM226.78 329.6a.97.97 0 0 1 .77-1.15l72.72-14.66a.97.97 0 0 1 .38 1.9l-72.73 14.66a.97.97 0 0 1-1.13-.76ZM172.66 251.74c-.12-.62.28-1.23.9-1.36l72.21-14.56c.63-.12 1.23.28 1.36.9.12.63-.28 1.24-.9 1.36l-72.21 14.56a1.15 1.15 0 0 1-1.36-.9ZM228.09 336.14c-.13-.63.28-1.24.9-1.36l72.2-14.56c.63-.13 1.24.28 1.36.9.12.63-.28 1.23-.9 1.36l-72.21 14.56a1.15 1.15 0 0 1-1.35-.9ZM176.46 270.82c-.13-.62.28-1.23.9-1.35L294.7 245.8c.62-.12 1.23.28 1.35.9.13.63-.28 1.24-.9 1.37L177.8 271.73a1.15 1.15 0 0 1-1.35-.9ZM194.74 362.71c-.13-.62.28-1.23.9-1.36l117.34-23.66c.62-.12 1.22.28 1.35.9.12.63-.28 1.24-.9 1.36l-117.34 23.66a1.15 1.15 0 0 1-1.35-.9ZM177.5 276.1c-.12-.63.29-1.24.91-1.36l112.32-22.65a1.15 1.15 0 1 1 .45 2.26L178.86 277a1.15 1.15 0 0 1-1.35-.9ZM195.78 367.98c-.12-.62.28-1.23.9-1.35l112.33-22.65c.62-.13 1.23.27 1.35.9.13.62-.28 1.23-.9 1.36l-112.32 22.65a1.15 1.15 0 0 1-1.35-.9ZM178.56 281.37c-.13-.63.28-1.23.9-1.36l114.83-23.15c.62-.13 1.23.28 1.35.9.13.62-.28 1.23-.9 1.36L179.9 282.27a1.15 1.15 0 0 1-1.35-.9ZM196.83 373.26c-.12-.63.28-1.24.9-1.36l114.84-23.16c.62-.12 1.23.28 1.35.9.12.63-.28 1.24-.9 1.36l-114.83 23.16a1.15 1.15 0 0 1-1.36-.9ZM179.6 286.64c-.12-.62.29-1.23.9-1.36l114.84-23.15c.62-.13 1.23.28 1.35.9.13.63-.28 1.23-.9 1.36l-114.83 23.15a1.15 1.15 0 0 1-1.36-.9ZM180.65 291.92c-.12-.63.28-1.24.9-1.36l107.31-21.64c.63-.13 1.23.28 1.36.9.12.63-.28 1.23-.9 1.36L182 292.82a1.15 1.15 0 0 1-1.36-.9ZM181.7 297.19c-.12-.63.28-1.24.9-1.36l107.31-21.64c.63-.12 1.23.28 1.36.9.12.63-.28 1.24-.9 1.36L183.05 298.1a1.15 1.15 0 0 1-1.36-.9ZM182.75 302.46c-.12-.62.28-1.23.9-1.36l107.31-21.64c.63-.12 1.23.28 1.36.9.12.63-.28 1.24-.9 1.36L184.1 303.36a1.15 1.15 0 0 1-1.35-.9ZM183.8 307.73c-.12-.62.28-1.23.9-1.35l107.31-21.64c.63-.13 1.23.28 1.36.9.12.62-.29 1.23-.9 1.36l-107.32 21.64a1.15 1.15 0 0 1-1.35-.9ZM223.5 313.05c-.13-.63.27-1.23.9-1.36l49.64-10c.62-.13 1.23.27 1.35.9.13.62-.28 1.23-.9 1.35l-49.64 10.01a1.15 1.15 0 0 1-1.36-.9ZM229.1 341.26c-.13-.66.3-1.3.96-1.43l57.03-11.5c.66-.14 1.3.29 1.43.94.13.66-.3 1.3-.95 1.44l-57.04 11.5a1.2 1.2 0 0 1-1.43-.95ZM224.54 318.32c-.12-.62.28-1.23.9-1.36l49.65-10c.62-.13 1.23.27 1.35.9.13.62-.28 1.23-.9 1.35l-49.65 10.01a1.15 1.15 0 0 1-1.35-.9Z" fill="#E8E8E8"/><rect width="123" height="5" rx="2.5" transform="rotate(-11.4 1210.8 -723.7) skewX(-.15)" fill="#05F"/><rect width="87.28" height="51.47" rx="7.46" transform="rotate(12.29 -721.02 1858.17) skewX(.04)" fill="#F23030"/><path d="m380.97 237.42 5.69-26.16 8.98 1.95c1.45.32 2.77.76 3.96 1.33 1.2.54 2.2 1.24 2.98 2.12.8.84 1.35 1.87 1.64 3.08.33 1.2.33 2.58-.02 4.16a9 9 0 0 1-1.7 3.79 7.7 7.7 0 0 1-2.81 2.28c-1.1.52-2.3.82-3.6.9-1.3.08-2.65-.03-4.04-.33l-3.25-.7-1.93 8.86-5.9-1.28Zm8.85-12.28 2.88.63c3.21.7 5.12-.35 5.73-3.13.3-1.36.07-2.42-.66-3.17-.73-.74-1.9-1.3-3.5-1.64l-2.74-.6-1.71 7.91Zm15.05 17.47 5.69-26.15 7.38 1.6c2 .44 3.75 1.08 5.25 1.94a11 11 0 0 1 3.62 3.26c.92 1.3 1.51 2.83 1.77 4.6a16.9 16.9 0 0 1-.34 6.01 17.25 17.25 0 0 1-2.2 5.66 11.3 11.3 0 0 1-3.5 3.56 11.08 11.08 0 0 1-4.58 1.53c-1.66.2-3.46.09-5.39-.33l-7.7-1.68Zm6.94-3.49 1.12.25c1.12.24 2.17.31 3.14.22.98-.1 1.86-.4 2.64-.9a6.85 6.85 0 0 0 2.05-2.29c.6-.99 1.08-2.27 1.42-3.85.34-1.55.44-2.89.29-4.01a6.13 6.13 0 0 0-.94-2.85 5.5 5.5 0 0 0-2.03-1.87c-.85-.47-1.84-.82-2.96-1.06l-1.12-.25-3.61 16.61Zm18.53 9.03 5.68-26.16 16.5 3.59-1.09 4.97-10.6-2.3-1.3 6.06 9.06 1.97-1.08 4.97-9.07-1.97-2.2 10.15-5.9-1.28Z" fill="#fff"/><path fill-rule="evenodd" clip-rule="evenodd" d="M509.8 439.06a1.32 1.32 0 0 1-1.86-1.87l2.8-2.8a1.32 1.32 0 0 1 1.87 1.87l-2.8 2.8Zm-8.41-2.8a1.32 1.32 0 0 1 1.87-1.87l2.8 2.8a1.32 1.32 0 1 1-1.87 1.88l-2.8-2.81Zm6.54 6.55a1.32 1.32 0 1 1 1.87-1.88l2.8 2.81a1.32 1.32 0 0 1-1.86 1.87l-2.8-2.8Zm-6.54 2.8c.51.52 1.35.52 1.87 0l2.8-2.8a1.32 1.32 0 1 0-1.87-1.88l-2.8 2.81a1.32 1.32 0 0 0 0 1.87ZM58.8 133.06a1.32 1.32 0 0 1-1.86-1.87l2.8-2.8a1.32 1.32 0 0 1 1.87 1.87l-2.8 2.8Zm-8.41-2.8a1.32 1.32 0 0 1 1.87-1.87l2.8 2.8a1.32 1.32 0 0 1-1.87 1.88l-2.8-2.81Zm6.54 6.55a1.32 1.32 0 0 1 1.87-1.88l2.8 2.81a1.32 1.32 0 0 1-1.86 1.87l-2.8-2.8Zm-6.54 2.8c.51.52 1.35.52 1.87 0l2.8-2.8a1.32 1.32 0 0 0-1.87-1.88l-2.8 2.81a1.32 1.32 0 0 0 0 1.87ZM503.8 67.06a1.32 1.32 0 1 1-1.86-1.87l2.8-2.8a1.32 1.32 0 1 1 1.87 1.87l-2.8 2.8Zm-8.41-2.8a1.32 1.32 0 0 1 1.87-1.87l2.8 2.8a1.32 1.32 0 1 1-1.87 1.87l-2.8-2.8Zm6.54 6.55a1.32 1.32 0 1 1 1.87-1.87l2.8 2.8a1.32 1.32 0 0 1-1.86 1.87l-2.8-2.8Zm-6.54 2.8c.51.52 1.35.52 1.87 0l2.8-2.8a1.32 1.32 0 1 0-1.87-1.87l-2.8 2.8a1.32 1.32 0 0 0 0 1.87Z" fill="#FF5975"/><path fill-rule="evenodd" clip-rule="evenodd" d="M470 452a6 6 0 1 1-12 0 6 6 0 0 1 12 0Zm-9 0a3 3 0 1 0 6 0 3 3 0 0 0-6 0ZM50 93a6 6 0 1 1-12 0 6 6 0 0 1 12 0Zm-9 0a3 3 0 1 0 6 0 3 3 0 0 0-6 0ZM108 428a6 6 0 1 1-12 0 6 6 0 0 1 12 0Zm-9 0a3 3 0 1 0 6 0 3 3 0 0 0-6 0Z" fill="#3D99F5"/><path d="M260.42 96.73c-6.82-9.25-13.5-18.3-24.27-23.25-4.88-2.24-11.6-5.71-17.06-3.95-6.48 2.1-13.34 3.72-19.34 6.97-10.69 5.79-22.72 17.79-27.63 29-5.22 11.9-4.15 25.65 4.95 35.87 2.59 2.9 7.68 8.69 11.65 4.24 3.27-3.66 3.77-8 2.32-12.48-2.98-9.2-10.62-8.76-17.3-3.3-8.33 6.78-12.03 15.47-14.4 25.3a75.6 75.6 0 0 0-2.15 18.32c-.05 3.35 2.83 11.86 9.03 18.54" stroke="#3D99F5" stroke-width="5.77" stroke-linecap="round" stroke-linejoin="round" stroke-dasharray="7.69 11.53"/><path fill-rule="evenodd" clip-rule="evenodd" d="M268.1 95.91a48.14 48.14 0 0 0-.56 7.39c.01.83-.38 1.61-1.05 2.1-.67.5-1.54.65-2.34.4-6.4-2-11.56-2.03-14.6-1.66-1.4.18-2.88-.56-3.35-1.89-.47-1.33.23-2.79 1.62-3.03 2.45-.42 5.95-.6 10.17-.04a4.43 4.43 0 0 0 4.95-3.7l.04-.3c.38-2.5.98-5.26 1.92-7.8.5-1.33 2.03-1.86 3.3-1.25 1.3.62 1.83 2.18 1.37 3.54a36.9 36.9 0 0 0-1.47 6.24Z" fill="#3D99F5"/><rect x="142" y="312.51" width="84.21" height="49.61" rx="7.2" transform="rotate(-11.3 142 312.51)" fill="#3D99F5"/><path d="m159.72 347.72-4.63-23.16 6.54-1.3c1.77-.36 3.41-.46 4.93-.29 1.5.17 2.87.62 4.07 1.36a9.16 9.16 0 0 1 3.06 3.09c.83 1.33 1.45 3 1.85 4.98.4 2 .47 3.78.22 5.35a9.95 9.95 0 0 1-1.58 4.12 9.78 9.78 0 0 1-3.16 2.85 14.4 14.4 0 0 1-4.48 1.64l-6.82 1.36Zm4.38-5.27 1-.2c.99-.2 1.86-.5 2.61-.93a5.16 5.16 0 0 0 1.81-1.65c.45-.71.74-1.57.86-2.58.14-1.01.07-2.22-.2-3.61a10.51 10.51 0 0 0-1.2-3.35 5.41 5.41 0 0 0-1.76-1.97 4.85 4.85 0 0 0-2.3-.8 9.74 9.74 0 0 0-2.77.19l-1 .2 2.95 14.7Zm27.67-.7c-1.57.32-3.05.33-4.46.05a9.71 9.71 0 0 1-3.8-1.76 11.46 11.46 0 0 1-2.92-3.36c-.8-1.4-1.38-3.04-1.76-4.93a16 16 0 0 1-.26-5.2c.22-1.6.7-2.98 1.42-4.16a9.15 9.15 0 0 1 2.84-2.97c1.2-.8 2.57-1.36 4.14-1.68a11 11 0 0 1 4.42-.03c1.4.26 2.68.8 3.8 1.64 1.13.83 2.1 1.95 2.89 3.34.81 1.36 1.4 2.98 1.78 4.85.38 1.9.46 3.64.23 5.24-.2 1.59-.65 3-1.37 4.22a9.63 9.63 0 0 1-2.85 3.09c-1.17.8-2.54 1.35-4.1 1.67Zm-.9-4.5a4.42 4.42 0 0 0 3.36-2.78c.64-1.56.74-3.51.27-5.86-.47-2.32-1.3-4.04-2.48-5.16a4.47 4.47 0 0 0-4.15-1.2 4.46 4.46 0 0 0-3.38 2.71c-.66 1.49-.76 3.4-.3 5.71.47 2.35 1.3 4.11 2.5 5.3a4.42 4.42 0 0 0 4.18 1.27Zm25.43-.4c-1.47.3-2.9.32-4.3.09-1.41-.26-2.71-.8-3.9-1.59a11 11 0 0 1-3.06-3.23 14.7 14.7 0 0 1-1.88-4.98 14.05 14.05 0 0 1-.13-5.3 11.8 11.8 0 0 1 1.61-4.3 10.23 10.23 0 0 1 3-3.08 11.13 11.13 0 0 1 4.03-1.66c1.5-.3 2.9-.25 4.2.12 1.3.36 2.43.86 3.37 1.51l-2.1 3.9a8.34 8.34 0 0 0-2.15-.94 5.05 5.05 0 0 0-4.44.89 5.41 5.41 0 0 0-1.52 1.81c-.37.74-.62 1.6-.74 2.59-.1.98-.03 2.05.2 3.2.48 2.4 1.36 4.16 2.64 5.28a5.02 5.02 0 0 0 4.48 1.14 5.27 5.27 0 0 0 2.4-1.11 8.23 8.23 0 0 0 1.68-1.96l3.42 2.71a9.6 9.6 0 0 1-6.81 4.91Z" fill="#fff"/><defs><filter id="a" x="259.7" y="131.72" width="183.87" height="213.24" filterUnits="userSpaceOnUse" color-interpolation-filters="sRGB"><feFlood flood-opacity="0" result="BackgroundImageFix"/><feColorMatrix in="SourceAlpha" type="matrix" values="0 0 0 0 0 0 0 0 0 0 0 0 0 0 0 0 0 0 127 0" result="hardAlpha"/><feOffset/><feGaussianBlur stdDeviation=".54"/><feColorMatrix type="matrix" values="0 0 0 0 0.101961 0 0 0 0 0.101961 0 0 0 0 0.101961 0 0 0 0.2 0"/><feBlend mode="normal" in2="BackgroundImageFix" result="effect1_dropShadow"/><feBlend mode="normal" in="SourceGraphic" in2="effect1_dropShadow" result="shape"/></filter><filter id="b" x="151.58" y="181.65" width="181.1" height="212.18" filterUnits="userSpaceOnUse" color-interpolation-filters="sRGB"><feFlood flood-opacity="0" result="BackgroundImageFix"/><feColorMatrix in="SourceAlpha" type="matrix" values="0 0 0 0 0 0 0 0 0 0 0 0 0 0 0 0 0 0 127 0" result="hardAlpha"/><feOffset/><feGaussianBlur stdDeviation=".54"/><feColorMatrix type="matrix" values="0 0 0 0 0.101961 0 0 0 0 0.101961 0 0 0 0 0.101961 0 0 0 0.2 0"/><feBlend mode="normal" in2="BackgroundImageFix" result="effect1_dropShadow"/><feBlend mode="normal" in="SourceGraphic" in2="effect1_dropShadow" result="shape"/></filter></defs></svg>